<svg width="711" height="488" viewBox="0 0 711 488" fill="none" xmlns="http://www.w3.org/2000/svg">
<path fill-rule="evenodd" clip-rule="evenodd" d="M331.542 472.723C309.389 473.486 287.234 474.25 263.808 470.431C240.381 466.611 215.681 458.208 194.418 445.858C173.156 433.508 155.331 417.211 140.053 395.694C124.774 374.177 112.042 347.439 101.602 323.249C91.1616 299.058 83.0133 277.413 71.8091 256.405C60.6049 235.397 46.3451 215.026 33.8676 200.257C21.3901 185.488 10.6953 176.321 0.000488281 167.154C133.735 145.845 234.003 158.611 300.807 205.451C263.615 284.469 266.488 356.217 309.426 420.695C239.065 363.43 193.496 303.501 172.72 240.909C179.986 325.765 232.927 403.036 331.543 472.723H331.542Z" fill="#007A5E"/>
<path fill-rule="evenodd" clip-rule="evenodd" d="M353.113 450.597C348.019 323.273 378.158 234.359 443.533 183.856C396.856 250.386 377.935 338.965 386.769 449.592C427.529 392.867 477.763 350.336 537.47 321.998C567.975 226.073 520.588 118.74 395.309 0C395.811 11.5539 396.313 23.1075 394.053 38.3451C391.793 53.5827 386.769 72.504 378.816 91.9278C370.862 111.352 359.978 131.278 348.842 151.204C337.708 171.13 326.321 191.056 317.028 210.48C307.734 229.904 300.534 248.825 296.181 265.318C291.828 281.812 290.32 295.877 291.074 312.035C291.828 328.194 294.842 346.445 300.618 363.693C306.395 380.939 314.935 397.182 324.144 411.498C333.354 425.815 343.233 438.206 353.113 450.597Z" fill="#00AB59"/>
<path fill-rule="evenodd" clip-rule="evenodd" d="M410.379 470.69C435.161 476.216 459.943 481.742 483.636 484.923C507.33 488.105 529.936 488.942 552.122 485.258C574.308 481.574 596.076 473.369 614.411 462.067C632.747 450.764 647.649 436.364 660.124 419.451C672.599 402.54 682.645 383.116 690.264 361.097C697.883 339.078 703.073 314.463 706.423 289.011C709.771 263.56 711.279 237.271 710.86 211.233C710.442 185.195 708.097 159.409 705.753 133.622C673.402 174.242 624.34 204.382 558.568 224.043C565.426 254.285 564.589 284.593 556.057 314.966C586.115 303.26 610.059 299.242 627.891 302.909C550.971 320.929 478.466 376.856 410.379 470.69H410.379Z" fill="#007A5E"/>
</svg>
