<svg width="17" height="21" viewBox="0 0 17 21" fill="none" xmlns="http://www.w3.org/2000/svg">
<path d="M11.5 2.5H2.5V18.5H14.5V5.5H11.5V2.5ZM2.5 0.5H12.5L16.5 4.5V18.5C16.5 19.0304 16.2893 19.5391 15.9142 19.9142C15.5391 20.2893 15.0304 20.5 14.5 20.5H2.5C1.96957 20.5 1.46086 20.2893 1.08579 19.9142C0.710714 19.5391 0.5 19.0304 0.5 18.5V2.5C0.5 1.96957 0.710714 1.46086 1.08579 1.08579C1.46086 0.710714 1.96957 0.5 2.5 0.5ZM4.5 9.5H12.5V11.5H4.5V9.5ZM4.5 13.5H12.5V15.5H4.5V13.5Z" fill="#141414"/>
</svg>
