<svg width="15" height="20" viewBox="0 0 15 20" fill="none" xmlns="http://www.w3.org/2000/svg">
<path d="M2.77201 0.439054L3.84901 0.0950539C4.85701 -0.226946 5.93501 0.294054 6.36701 1.31205L7.22701 3.34005C7.60201 4.22305 7.39401 5.26205 6.71301 5.90805L4.82001 7.70605C4.93701 8.78205 5.29801 9.84105 5.90401 10.8831C6.47983 11.8912 7.25207 12.7736 8.17501 13.4781L10.451 12.7181C11.313 12.4311 12.252 12.7621 12.781 13.5391L14.013 15.3491C14.629 16.2531 14.518 17.4991 13.755 18.2651L12.937 19.0861C12.123 19.9031 10.961 20.2001 9.88501 19.8641C7.34601 19.0721 5.01201 16.7211 2.88201 12.8111C0.749006 8.89505 -0.00299418 5.57105 0.624006 2.84305C0.888006 1.69505 1.70601 0.780054 2.77401 0.439054H2.77201Z" fill="white"/>
</svg>
