<svg width="17" height="24" viewBox="0 0 17 24" fill="none" xmlns="http://www.w3.org/2000/svg">
<path d="M3.06734 0.845441L4.32384 0.444108C5.49984 0.0684408 6.75751 0.676274 7.26151 1.86394L8.26484 4.22994C8.70234 5.26011 8.45967 6.47228 7.66517 7.22594L5.45667 9.32361C5.59317 10.5789 6.01434 11.8144 6.72134 13.0301C7.39314 14.2063 8.29408 15.2358 9.37084 16.0576L12.0262 15.1709C13.0318 14.8361 14.1273 15.2223 14.7445 16.1288L16.1818 18.2404C16.9005 19.2951 16.771 20.7488 15.8808 21.6424L14.9265 22.6003C13.9768 23.5534 12.6212 23.8999 11.3658 23.5079C8.40367 22.5839 5.68067 19.8411 3.19567 15.2794C0.707173 10.7108 -0.17016 6.83278 0.56134 3.65011C0.86934 2.31077 1.82367 1.24327 3.06967 0.845441H3.06734Z" fill="#141414"/>
</svg>
