<svg width="45" height="60" viewBox="0 0 45 60" fill="none" xmlns="http://www.w3.org/2000/svg">
<path d="M20.3672 0.644531C21.6563 -0.210937 23.3438 -0.210937 24.6328 0.644531L26.7188 2.01563C27.4219 2.47266 28.2422 2.69531 29.0742 2.64844L31.5703 2.49609C33.1172 2.40234 34.5703 3.24609 35.2617 4.62891L36.3867 6.86719C36.7617 7.61719 37.3711 8.21484 38.1094 8.58984L40.3711 9.72656C41.7539 10.418 42.5977 11.8711 42.5039 13.418L42.3516 15.9141C42.3047 16.7461 42.5273 17.5781 42.9844 18.2695L44.3672 20.3555C45.2227 21.6445 45.2227 23.332 44.3672 24.6211L42.9844 26.7188C42.5273 27.4219 42.3047 28.2422 42.3516 29.0742L42.5039 31.5703C42.5977 33.1172 41.7539 34.5703 40.3711 35.2617L38.1328 36.3867C37.3828 36.7617 36.7852 37.3711 36.4102 38.1094L35.2734 40.3711C34.582 41.7539 33.1289 42.5977 31.582 42.5039L29.0859 42.3516C28.2539 42.3047 27.4219 42.5273 26.7305 42.9844L24.6445 44.3672C23.3555 45.2227 21.668 45.2227 20.3789 44.3672L18.2813 42.9844C17.5781 42.5273 16.7578 42.3047 15.9258 42.3516L13.4297 42.5039C11.8828 42.5977 10.4297 41.7539 9.73829 40.3711L8.61329 38.1328C8.23829 37.3828 7.62891 36.7852 6.89063 36.4102L4.62891 35.2734C3.2461 34.582 2.40235 33.1289 2.4961 31.582L2.64844 29.0859C2.69532 28.2539 2.47266 27.4219 2.01563 26.7305L0.644535 24.6328C-0.210934 23.3438 -0.210934 21.6563 0.644535 20.3672L2.01563 18.2813C2.47266 17.5781 2.69532 16.7578 2.64844 15.9258L2.4961 13.4297C2.40235 11.8828 3.2461 10.4297 4.62891 9.73828L6.86719 8.61328C7.61719 8.22656 8.22657 7.61719 8.60157 6.86719L9.72657 4.62891C10.418 3.24609 11.8711 2.40234 13.418 2.49609L15.9141 2.64844C16.7461 2.69531 17.5781 2.47266 18.2695 2.01563L20.3672 0.644531ZM31.875 22.5C31.875 20.0136 30.8873 17.629 29.1291 15.8709C27.371 14.1127 24.9864 13.125 22.5 13.125C20.0136 13.125 17.629 14.1127 15.8709 15.8709C14.1127 17.629 13.125 20.0136 13.125 22.5C13.125 24.9864 14.1127 27.371 15.8709 29.1291C17.629 30.8873 20.0136 31.875 22.5 31.875C24.9864 31.875 27.371 30.8873 29.1291 29.1291C30.8873 27.371 31.875 24.9864 31.875 22.5ZM0.152347 51.7734L5.20313 39.7617C5.22657 39.7734 5.23829 39.7852 5.25 39.8086L6.375 42.0469C7.7461 44.7656 10.5938 46.418 13.6406 46.2422L16.1367 46.0898C16.1602 46.0898 16.1953 46.0898 16.2188 46.1133L18.3047 47.4961C18.9023 47.8828 19.5352 48.1875 20.1914 48.3984L15.7852 58.8633C15.5156 59.5078 14.918 59.9414 14.2266 60C13.5352 60.0586 12.8672 59.7422 12.4922 59.1563L8.71875 53.3789L2.14453 54.3516C1.47657 54.4453 0.808597 54.1758 0.386722 53.6484C-0.0351526 53.1211 -0.117184 52.3945 0.140629 51.7734H0.152347ZM29.2148 58.8516L24.8086 48.3984C25.4648 48.1875 26.0977 47.8945 26.6953 47.4961L28.7813 46.1133C28.8047 46.1016 28.8281 46.0898 28.8633 46.0898L31.3594 46.2422C34.4063 46.418 37.2539 44.7656 38.625 42.0469L39.75 39.8086C39.7617 39.7852 39.7734 39.7734 39.7969 39.7617L44.8594 51.7734C45.1172 52.3945 45.0234 53.1094 44.6133 53.6484C44.2031 54.1875 43.5234 54.457 42.8555 54.3516L36.2813 53.3789L32.5078 59.1445C32.1328 59.7305 31.4649 60.0469 30.7734 59.9883C30.082 59.9297 29.4844 59.4844 29.2148 58.8516Z" fill="#FFD400"/>
</svg>
