<svg width="24" height="21" viewBox="0 0 24 21" fill="none" xmlns="http://www.w3.org/2000/svg">
<path fill-rule="evenodd" clip-rule="evenodd" d="M21.0732 0.168293C21.3615 0.0469487 21.677 0.00509802 21.987 0.047096C22.297 0.089094 22.59 0.213406 22.8356 0.407092C23.0813 0.600778 23.2705 0.856758 23.3836 1.14839C23.4967 1.44002 23.5296 1.75664 23.4788 2.06529L20.8328 18.1151C20.5762 19.6633 18.8775 20.5511 17.4577 19.78C16.27 19.1348 14.506 18.1408 12.9193 17.1036C12.126 16.5845 9.69584 14.922 9.9945 13.739C10.2512 12.7275 14.3345 8.92646 16.6678 6.66663C17.5837 5.77879 17.166 5.26663 16.0845 6.08329C13.3977 8.11096 9.08684 11.1945 7.66117 12.0625C6.4035 12.8278 5.74784 12.9585 4.96384 12.8278C3.5335 12.5898 2.207 12.2211 1.12434 11.772C-0.338664 11.1653 -0.267497 9.15396 1.12317 8.56829L21.0732 0.168293Z" fill="#11ACCB"/>
</svg>
