<svg width="23" height="25" viewBox="0 0 23 25" fill="none" xmlns="http://www.w3.org/2000/svg">
<path fill-rule="evenodd" clip-rule="evenodd" d="M17.4553 1.06605C13.7848 0.245561 9.97836 0.245561 6.30782 1.06605L5.91232 1.15355C4.87984 1.38439 3.93156 1.89693 3.17283 2.63425C2.4141 3.37156 1.87462 4.30477 1.61432 5.33022C0.683899 8.9965 0.683899 12.8371 1.61432 16.5034C1.86256 17.4814 2.36496 18.3763 3.07059 19.0975C3.77622 19.8187 4.66 20.3405 5.63232 20.6101L6.17482 23.8487C6.19214 23.9516 6.23671 24.0479 6.30389 24.1276C6.37108 24.2074 6.45841 24.2677 6.55681 24.3022C6.65521 24.3368 6.76108 24.3443 6.86338 24.3241C6.96568 24.3038 7.06068 24.2565 7.13849 24.1871L10.3247 21.3369C12.7164 21.4828 15.1168 21.2916 17.4553 20.7687L17.852 20.6812C18.8845 20.4504 19.8327 19.9378 20.5915 19.2005C21.3502 18.4632 21.8897 17.53 22.15 16.5046C23.0803 12.8383 23.0803 8.99768 22.15 5.33139C21.8896 4.30579 21.3499 3.37247 20.591 2.63515C19.832 1.89782 18.8835 1.38537 17.8508 1.15472L17.4553 1.06605ZM7.29249 5.23572C7.07566 5.20416 6.85456 5.2478 6.66599 5.35939H6.64965C6.21215 5.61605 5.81782 5.93922 5.48182 6.31955C5.20182 6.64272 5.05015 6.96939 5.01049 7.28439C4.98715 7.47105 5.00349 7.66005 5.05832 7.83855L5.07932 7.85022C5.39432 8.77539 5.80499 9.66555 6.30665 10.5032C6.95351 11.6798 7.74953 12.7679 8.67498 13.7407L8.70299 13.7804L8.74732 13.8131L8.77415 13.8446L8.80682 13.8726C9.783 14.8008 10.8737 15.6006 12.0525 16.2526C13.4 16.9864 14.2178 17.3329 14.709 17.4776V17.4846C14.8525 17.5289 14.9832 17.5487 15.115 17.5487C15.5333 17.5178 15.9292 17.3478 16.2397 17.0657C16.6188 16.7297 16.9397 16.3342 17.1893 15.8944V15.8862C17.4238 15.4429 17.3445 15.0252 17.0062 14.7417C16.3266 14.1479 15.5917 13.6205 14.8117 13.1667C14.289 12.8832 13.7582 13.0547 13.5435 13.3417L13.085 13.9204C12.8493 14.2074 12.4223 14.1677 12.4223 14.1677L12.4107 14.1747C9.22449 13.3616 8.37399 10.1357 8.37399 10.1357C8.37399 10.1357 8.33432 9.69705 8.62949 9.47305L9.20349 9.01105C9.47882 8.78705 9.67015 8.25739 9.37499 7.73472C8.92419 6.95394 8.39783 6.21931 7.80349 5.54139C7.67386 5.38184 7.49206 5.27318 7.29015 5.23455L7.29249 5.23572ZM12.6755 3.83339C12.5208 3.83339 12.3724 3.89484 12.263 4.00424C12.1536 4.11364 12.0922 4.26201 12.0922 4.41672C12.0922 4.57143 12.1536 4.7198 12.263 4.8292C12.3724 4.93859 12.5208 5.00005 12.6755 5.00005C14.1513 5.00005 15.3763 5.48189 16.3458 6.40589C16.844 6.91105 17.2325 7.50955 17.4868 8.16522C17.7423 8.82205 17.859 9.52322 17.8287 10.2256C17.8254 10.3022 17.8373 10.3786 17.8637 10.4506C17.89 10.5227 17.9303 10.5888 17.9822 10.6452C18.087 10.7592 18.2328 10.8269 18.3875 10.8334C18.5422 10.8399 18.6931 10.7847 18.8071 10.6799C18.9211 10.5751 18.9888 10.4293 18.9953 10.2746C19.0315 9.41062 18.8881 8.54857 18.5742 7.74289C18.2588 6.93338 17.7808 6.19719 17.1695 5.57989L17.1578 5.56822C15.955 4.41905 14.4325 3.83339 12.6755 3.83339ZM12.6358 5.75139C12.4811 5.75139 12.3327 5.81284 12.2233 5.92224C12.1139 6.03164 12.0525 6.18001 12.0525 6.33472C12.0525 6.48943 12.1139 6.6378 12.2233 6.7472C12.3327 6.85659 12.4811 6.91805 12.6358 6.91805H12.6557C13.7197 6.99389 14.4943 7.34855 15.0368 7.93072C15.5933 8.53039 15.8815 9.27589 15.8593 10.1976C15.8558 10.3523 15.9138 10.502 16.0207 10.614C16.1276 10.7259 16.2745 10.7907 16.4292 10.7943C16.5839 10.7979 16.7337 10.7398 16.8456 10.6329C16.9576 10.5261 17.0224 10.3791 17.026 10.2244C17.054 9.01455 16.6643 7.97039 15.892 7.13739V7.13505C15.1022 6.28805 14.0183 5.84005 12.714 5.75255L12.6942 5.75022L12.6358 5.75139ZM12.6137 7.70555C12.5356 7.69866 12.4569 7.70758 12.3824 7.73176C12.3078 7.75594 12.2389 7.7949 12.1798 7.8463C12.1206 7.8977 12.0724 7.96049 12.0381 8.03093C12.0037 8.10137 11.9839 8.17801 11.9798 8.25628C11.9758 8.33454 11.9875 8.41282 12.0143 8.48645C12.0412 8.56008 12.0826 8.62754 12.1361 8.68481C12.1896 8.74208 12.2541 8.78799 12.3257 8.81979C12.3973 8.85159 12.4746 8.86862 12.553 8.86989C13.0407 8.89555 13.3522 9.04255 13.5482 9.23972C13.7453 9.43805 13.8923 9.75655 13.9192 10.2547C13.9206 10.333 13.9378 10.4102 13.9697 10.4817C14.0016 10.5532 14.0476 10.6175 14.1049 10.6709C14.1623 10.7242 14.2297 10.7655 14.3033 10.7922C14.3769 10.8189 14.4551 10.8305 14.5333 10.8264C14.6115 10.8222 14.6881 10.8024 14.7584 10.768C14.8288 10.7337 14.8915 10.6855 14.9428 10.6264C14.9942 10.5672 15.0331 10.4984 15.0572 10.4239C15.0814 10.3495 15.0903 10.2709 15.0835 10.1929C15.0462 9.49289 14.8268 8.87455 14.3777 8.41955C13.9262 7.96455 13.3113 7.74289 12.6137 7.70555Z" fill="#11ACCB"/>
</svg>
