<svg width="99" height="71" viewBox="0 0 99 71" fill="none" xmlns="http://www.w3.org/2000/svg">
<path d="M80.8309 17.672C86.6249 17.672 90.9382 19.0883 93.7708 21.9209C96.6034 24.7535 98.0197 29.2599 98.0197 35.4401V69.9142H93.8673L92.9017 61.2233H92.612C91.3888 63.1546 89.9725 64.8606 88.3631 66.3413C86.818 67.7576 84.9189 68.8842 82.6657 69.7211C80.4768 70.4936 77.773 70.8799 74.5541 70.8799C71.3352 70.8799 68.5348 70.3327 66.1529 69.2383C63.7709 68.0795 61.9361 66.4378 60.6486 64.3134C59.361 62.1889 58.7173 59.5817 58.7173 56.4915C58.7173 51.4057 60.8095 47.5431 64.9941 44.9036C69.1786 42.1998 75.2623 40.6547 83.2451 40.2684L92.612 39.8822V36.2127C92.612 31.1268 91.5819 27.5539 89.5219 25.4938C87.5262 23.3694 84.5326 22.3071 80.5412 22.3071C77.9017 22.3071 75.3588 22.6612 72.9125 23.3694C70.5305 24.0131 68.1164 24.9466 65.67 26.1698L63.9318 21.8243C66.3138 20.6011 68.9533 19.6033 71.8503 18.8307C74.7472 18.0582 77.7408 17.672 80.8309 17.672ZM83.8245 44.3242C77.3223 44.6461 72.4618 45.8049 69.243 47.8006C66.0241 49.7319 64.4147 52.6611 64.4147 56.5881C64.4147 59.7426 65.4125 62.1568 67.4082 63.8306C69.4039 65.44 72.1078 66.2447 75.5198 66.2447C80.9919 66.2447 85.1764 64.7318 88.0734 61.7061C91.0347 58.6804 92.5476 54.4315 92.612 48.9594V43.9379L83.8245 44.3242Z" fill="#0083C9" fill-opacity="0.6"/>
<path d="M33.0256 5.02144C28.7767 5.02144 24.9462 5.76178 21.5342 7.24246C18.1866 8.65876 15.354 10.7188 13.0364 13.4227C10.7188 16.0622 8.94846 19.2488 7.72529 22.9827C6.50212 26.6523 5.89053 30.7402 5.89053 35.2466C5.89053 41.4269 6.85619 46.8346 8.78752 51.4697C10.7188 56.0405 13.6158 59.5813 17.4785 62.092C21.4055 64.6027 26.266 65.8581 32.0599 65.8581C35.4076 65.8581 38.4977 65.6006 41.3303 65.0856C44.1629 64.5705 46.7702 63.9268 49.1521 63.1542V67.9826C46.8346 68.8838 44.2273 69.592 41.3303 70.107C38.4977 70.622 35.1823 70.8795 31.384 70.8795C24.4956 70.8795 18.7016 69.3989 14.0021 66.4375C9.36691 63.4761 5.85834 59.3238 3.47638 53.9805C1.15879 48.6371 0 42.3925 0 35.2466C0 30.1608 0.74034 25.4613 2.22102 21.148C3.7017 16.8347 5.85834 13.1008 8.69095 9.94631C11.5236 6.79182 14.9677 4.34548 19.0235 2.60729C23.1437 0.869097 27.8432 0 33.1222 0C36.4054 0 39.5599 0.321887 42.5857 0.96566C45.6758 1.60943 48.5406 2.54291 51.18 3.76608L48.959 8.69096C46.5127 7.46778 43.9376 6.5665 41.2337 5.9871C38.5943 5.34333 35.8582 5.02144 33.0256 5.02144Z" fill="#0083C9" fill-opacity="0.6"/>
</svg>
