<svg width="881" height="393" viewBox="0 0 881 393" fill="none" xmlns="http://www.w3.org/2000/svg">
<path d="M161.456 26.323C167.883 26.323 173.188 27.5982 177.37 30.1487C181.553 32.5971 184.92 35.9637 187.47 40.2484H188.082L189.306 27.8533H196.346V111.865C196.346 119.006 195.121 125.076 192.673 130.075C190.225 135.176 186.399 139.104 181.196 141.858C176.095 144.613 169.413 145.99 161.15 145.99C155.131 145.99 149.724 145.48 144.929 144.46C140.236 143.439 136.002 142.113 132.228 140.481V132.064C134.778 133.289 137.583 134.411 140.644 135.431C143.705 136.451 146.969 137.216 150.438 137.726C154.008 138.237 157.732 138.492 161.609 138.492C170.586 138.492 177.166 136.145 181.349 131.452C185.634 126.76 187.776 120.434 187.776 112.477V107.58C187.776 105.438 187.776 103.295 187.776 101.153C187.878 98.9087 187.98 96.8173 188.082 94.879H187.623C185.277 100.082 181.808 104.061 177.217 106.815C172.627 109.467 167.016 110.794 160.384 110.794C149.877 110.794 141.664 107.223 135.747 100.082C129.83 92.9406 126.872 82.6878 126.872 69.3235C126.872 60.448 128.198 52.7966 130.85 46.3695C133.503 39.9424 137.379 34.9945 142.48 31.5259C147.683 28.0573 154.008 26.323 161.456 26.323ZM162.374 33.8213C156.457 33.8213 151.509 35.2496 147.53 38.1061C143.654 40.8605 140.746 44.8902 138.808 50.1952C136.869 55.3981 135.9 61.7742 135.9 69.3235C135.9 80.4434 138.094 88.9109 142.48 94.7259C146.867 100.541 153.141 103.448 161.303 103.448C166.505 103.448 170.79 102.683 174.157 101.153C177.523 99.5208 180.176 97.2764 182.114 94.4199C184.155 91.5634 185.583 88.1968 186.399 84.3201C187.317 80.3414 187.776 76.1077 187.776 71.6189V66.263C187.776 59.3258 186.96 53.4597 185.328 48.6649C183.695 43.8701 180.992 40.1974 177.217 37.647C173.545 35.0965 168.597 33.8213 162.374 33.8213Z" fill="white" fill-opacity="0.2"/>
<path d="M47.4383 109.261L8.11041 9.33463H7.65133C7.85537 11.171 7.95739 13.2623 7.95739 15.6087C8.0594 17.8531 8.11041 20.2505 8.11041 22.801C8.21243 25.2494 8.26344 27.7999 8.26344 30.4523V109.261H0V0H13.3133L50.9579 95.7947H51.57L89.6736 0H102.681V109.261H93.9584V29.5342C93.9584 27.2898 93.9584 24.9944 93.9584 22.6479C94.0604 20.3015 94.1624 18.0061 94.2644 15.7618C94.3664 13.5174 94.4685 11.426 94.5705 9.48766H94.1114L54.6305 109.261H47.4383Z" fill="white" fill-opacity="0.2"/>
<path d="M264.952 341.25C270.587 341.25 274.783 342.627 277.538 345.382C280.293 348.137 281.67 352.52 281.67 358.531V392.061H277.631L276.692 383.608H276.411C275.221 385.486 273.843 387.146 272.278 388.586C270.775 389.963 268.928 391.059 266.737 391.873C264.608 392.624 261.978 393 258.847 393C255.717 393 252.993 392.468 250.676 391.403C248.36 390.276 246.575 388.68 245.323 386.613C244.071 384.547 243.445 382.011 243.445 379.006C243.445 374.059 245.48 370.303 249.549 367.735C253.619 365.106 259.536 363.603 267.3 363.227L276.411 362.852V359.283C276.411 354.336 275.409 350.861 273.405 348.858C271.464 346.791 268.553 345.758 264.671 345.758C262.103 345.758 259.63 346.103 257.251 346.791C254.934 347.417 252.586 348.325 250.207 349.515L248.516 345.289C250.833 344.099 253.4 343.128 256.218 342.377C259.035 341.626 261.947 341.25 264.952 341.25ZM267.864 367.172C261.54 367.485 256.813 368.612 253.682 370.553C250.551 372.431 248.986 375.28 248.986 379.1C248.986 382.168 249.956 384.516 251.897 386.144C253.838 387.709 256.468 388.492 259.787 388.492C265.109 388.492 269.179 387.02 271.996 384.078C274.877 381.135 276.348 377.002 276.411 371.68V366.796L267.864 367.172Z" fill="white" fill-opacity="0.6"/>
<path d="M229.59 392.059H223.861L184.978 333.453H184.696C184.696 334.705 184.727 335.989 184.79 337.304C184.853 338.556 184.884 339.871 184.884 341.248C184.946 342.626 184.978 344.034 184.978 345.475C185.04 346.852 185.072 348.261 185.072 349.701V392.059H180V325H185.823L224.518 383.418H224.8C224.8 382.479 224.769 381.383 224.706 380.131C224.643 378.816 224.581 377.439 224.518 375.999C224.518 374.559 224.487 373.118 224.424 371.678C224.424 370.238 224.424 368.861 224.424 367.546V325H229.59V392.059Z" fill="white" fill-opacity="0.6"/>
<path d="M878.259 84.989V171.375H869.165V84.989H878.259ZM873.712 53C875.769 53 877.339 53.6495 878.421 54.9486C879.504 56.1394 880.045 57.8173 880.045 59.9824C880.045 62.2557 879.504 64.0419 878.421 65.3409C877.339 66.5317 875.769 67.1271 873.712 67.1271C871.764 67.1271 870.248 66.5317 869.165 65.3409C868.083 64.0419 867.542 62.2557 867.542 59.9824C867.542 57.8173 868.083 56.1394 869.165 54.9486C870.248 53.6495 871.764 53 873.712 53Z" fill="white" fill-opacity="0.4"/>
<path d="M846.61 141.336C846.61 148.264 844.878 154.11 841.414 158.873C838.058 163.528 833.349 167.046 827.287 169.428C821.224 171.81 814.35 173 806.664 173C801.901 173 797.625 172.73 793.836 172.188C790.047 171.755 786.583 171.214 783.444 170.565C780.304 169.807 777.49 168.941 775 167.966V158.548C779.114 160.172 783.877 161.634 789.289 162.933C794.702 164.123 800.656 164.719 807.151 164.719C813.105 164.719 818.301 163.853 822.74 162.121C827.287 160.389 830.805 157.845 833.295 154.489C835.893 151.133 837.192 146.911 837.192 141.823C837.192 137.168 836.109 133.379 833.944 130.457C831.887 127.534 828.64 124.99 824.201 122.825C819.871 120.551 814.296 118.278 807.476 116.005C802.605 114.273 798.22 112.486 794.323 110.646C790.534 108.806 787.287 106.641 784.58 104.151C781.874 101.661 779.817 98.7383 778.41 95.3824C777.003 92.0265 776.299 87.967 776.299 83.2039C776.299 76.8169 777.923 71.4583 781.17 67.1282C784.418 62.798 788.802 59.4963 794.323 57.223C799.952 54.9497 806.285 53.813 813.322 53.813C818.951 53.813 824.31 54.3543 829.397 55.4368C834.485 56.4111 839.303 57.9266 843.849 59.9835L840.764 68.1025C836.217 66.1539 831.617 64.6925 826.962 63.7182C822.307 62.7439 817.652 62.2568 812.997 62.2568C807.584 62.2568 802.821 63.0687 798.708 64.6925C794.702 66.208 791.563 68.5355 789.289 71.6749C787.016 74.706 785.879 78.4948 785.879 83.0415C785.879 88.0212 786.962 92.0265 789.127 95.0576C791.292 98.0887 794.432 100.633 798.545 102.69C802.659 104.638 807.693 106.641 813.647 108.698C820.467 111.079 826.312 113.623 831.184 116.329C836.163 118.928 839.952 122.175 842.55 126.072C845.257 129.969 846.61 135.057 846.61 141.336Z" fill="white" fill-opacity="0.4"/>
<path d="M380.831 184.672C386.625 184.672 390.938 186.088 393.771 188.921C396.603 191.753 398.02 196.26 398.02 202.44V236.914H393.867L392.902 228.223H392.612C391.389 230.155 389.973 231.861 388.363 233.341C386.818 234.757 384.919 235.884 382.666 236.721C380.477 237.494 377.773 237.88 374.554 237.88C371.335 237.88 368.535 237.333 366.153 236.238C363.771 235.079 361.936 233.438 360.649 231.313C359.361 229.189 358.717 226.582 358.717 223.491C358.717 218.406 360.81 214.543 364.994 211.904C369.179 209.2 375.262 207.655 383.245 207.268L392.612 206.882V203.213C392.612 198.127 391.582 194.554 389.522 192.494C387.526 190.369 384.533 189.307 380.541 189.307C377.902 189.307 375.359 189.661 372.912 190.369C370.531 191.013 368.116 191.947 365.67 193.17L363.932 188.824C366.314 187.601 368.953 186.603 371.85 185.831C374.747 185.058 377.741 184.672 380.831 184.672ZM383.824 211.324C377.322 211.646 372.462 212.805 369.243 214.801C366.024 216.732 364.415 219.661 364.415 223.588C364.415 226.743 365.413 229.157 367.408 230.83C369.404 232.44 372.108 233.245 375.52 233.245C380.992 233.245 385.176 231.732 388.073 228.706C391.035 225.68 392.548 221.431 392.612 215.959V210.938L383.824 211.324Z" fill="white" fill-opacity="0.6"/>
<path d="M333.026 172.021C328.777 172.021 324.946 172.762 321.534 174.242C318.187 175.659 315.354 177.719 313.036 180.423C310.719 183.062 308.948 186.249 307.725 189.983C306.502 193.652 305.891 197.74 305.891 202.247C305.891 208.427 306.856 213.835 308.788 218.47C310.719 223.041 313.616 226.581 317.478 229.092C321.405 231.603 326.266 232.858 332.06 232.858C335.408 232.858 338.498 232.601 341.33 232.086C344.163 231.571 346.77 230.927 349.152 230.154V234.983C346.835 235.884 344.227 236.592 341.33 237.107C338.498 237.622 335.182 237.88 331.384 237.88C324.496 237.88 318.702 236.399 314.002 233.437C309.367 230.476 305.858 226.324 303.476 220.98C301.159 215.637 300 209.393 300 202.247C300 197.161 300.74 192.461 302.221 188.148C303.702 183.835 305.858 180.101 308.691 176.946C311.524 173.792 314.968 171.345 319.024 169.607C323.144 167.869 327.843 167 333.122 167C336.405 167 339.56 167.322 342.586 167.966C345.676 168.609 348.541 169.543 351.18 170.766L348.959 175.691C346.513 174.468 343.938 173.566 341.234 172.987C338.594 172.343 335.858 172.021 333.026 172.021Z" fill="white" fill-opacity="0.6"/>
<path d="M635.306 223.327C624.845 223.327 615.415 225.144 607.015 228.779C598.774 232.256 591.8 237.313 586.094 243.951C580.389 250.431 576.03 258.253 573.019 267.42C570.008 276.428 568.502 286.463 568.502 297.526C568.502 312.698 570.879 325.973 575.634 337.352C580.389 348.572 587.521 357.264 597.03 363.428C606.698 369.591 618.664 372.673 632.928 372.673C641.17 372.673 648.777 372.041 655.751 370.777C662.725 369.512 669.143 367.932 675.008 366.035V377.888C669.302 380.101 662.883 381.839 655.751 383.104C648.777 384.368 640.615 385 631.264 385C614.306 385 600.042 381.365 588.472 374.095C577.06 366.826 568.423 356.632 562.558 343.515C556.853 330.398 554 315.068 554 297.526C554 285.041 555.823 273.504 559.468 262.916C563.113 252.327 568.423 243.161 575.396 235.417C582.37 227.673 590.849 221.668 600.834 217.401C610.977 213.134 622.547 211 635.543 211C643.626 211 651.392 211.79 658.842 213.371C666.449 214.951 673.502 217.243 680 220.245L674.532 232.335C668.509 229.332 662.17 227.12 655.513 225.698C649.015 224.117 642.279 223.327 635.306 223.327Z" fill="white" fill-opacity="0.2"/>
</svg>
