<svg width="156" height="116" viewBox="0 0 156 116" fill="none" xmlns="http://www.w3.org/2000/svg">
<path d="M128.279 20.9142C133.386 20.9142 137.601 21.9274 140.924 23.9537C144.247 25.8991 146.922 28.5739 148.948 31.9782H149.435L150.407 22.13H156V88.8787C156 94.5526 155.027 99.3753 153.082 103.347C151.137 107.4 148.097 110.52 143.963 112.709C139.911 114.897 134.602 115.992 128.036 115.992C123.254 115.992 118.958 115.586 115.148 114.776C111.42 113.965 108.056 112.911 105.057 111.615V104.928C107.083 105.9 109.312 106.792 111.744 107.602C114.176 108.413 116.769 109.021 119.525 109.426C122.362 109.831 125.321 110.034 128.401 110.034C135.534 110.034 140.762 108.17 144.085 104.441C147.489 100.713 149.191 95.6873 149.191 89.365V85.4744C149.191 83.7723 149.191 82.0701 149.191 80.368C149.272 78.5847 149.354 76.9231 149.435 75.3831H149.07C147.206 79.5169 144.45 82.678 140.802 84.8665C137.155 86.9739 132.697 88.0276 127.428 88.0276C119.08 88.0276 112.555 85.1907 107.853 79.5169C103.152 73.843 100.802 65.697 100.802 55.0788C100.802 48.0271 101.855 41.9479 103.963 36.8415C106.07 31.735 109.15 27.8039 113.203 25.048C117.337 22.2921 122.362 20.9142 128.279 20.9142ZM129.009 26.8717C124.308 26.8717 120.376 28.0065 117.215 30.276C114.135 32.4645 111.825 35.6662 110.285 39.881C108.745 44.0148 107.975 49.0808 107.975 55.0788C107.975 63.9138 109.718 70.6414 113.203 75.2615C116.688 79.8816 121.673 82.1917 128.158 82.1917C132.291 82.1917 135.696 81.5838 138.371 80.368C141.045 79.0711 143.153 77.2879 144.693 75.0183C146.314 72.7488 147.449 70.074 148.097 66.9939C148.827 63.8327 149.191 60.469 149.191 56.9026V52.6472C149.191 47.1355 148.543 42.4748 147.246 38.6652C145.949 34.8556 143.801 31.9377 140.802 29.9113C137.884 27.8849 133.953 26.8717 129.009 26.8717Z" fill="#0083C9" fill-opacity="0.6"/>
<path d="M37.6905 86.8098L6.44386 7.41653H6.07912C6.24123 8.87551 6.32228 10.5371 6.32228 12.4014C6.40334 14.1846 6.44386 16.0894 6.44386 18.1158C6.52492 20.0611 6.56545 22.0875 6.56545 24.1949V86.8098H0V0H10.5777L40.4869 76.1105H40.9732L71.2473 0H81.5817V86.8098H74.6516V23.4654C74.6516 21.6822 74.6516 19.8584 74.6516 17.9942C74.7326 16.1299 74.8137 14.3062 74.8947 12.523C74.9758 10.7398 75.0568 9.07815 75.1379 7.53811H74.7731L43.4049 86.8098H37.6905Z" fill="#0083C9" fill-opacity="0.6"/>
</svg>
