<svg width="258" height="173" viewBox="0 0 258 173" fill="none" xmlns="http://www.w3.org/2000/svg">
<path d="M215.051 41.1346C229.316 41.1346 239.936 44.6216 246.91 51.5957C253.884 58.5698 257.371 69.6649 257.371 84.881V169.759H247.148L244.77 148.361H244.057C241.045 153.116 237.558 157.316 233.596 160.962C229.792 164.449 225.116 167.223 219.568 169.283C214.179 171.185 207.522 172.136 199.597 172.136C191.672 172.136 184.777 170.789 178.913 168.094C173.048 165.241 168.531 161.2 165.361 155.969C162.191 150.739 160.606 144.319 160.606 136.711C160.606 124.189 165.757 114.679 176.06 108.181C186.362 101.524 201.341 97.7197 220.995 96.7687L244.057 95.8177V86.7831C244.057 74.2614 241.521 65.4646 236.449 60.3925C231.535 55.162 224.165 52.5467 214.338 52.5467C207.839 52.5467 201.579 53.4185 195.555 55.162C189.691 56.747 183.747 59.0453 177.724 62.0568L173.444 51.3579C179.309 48.3464 185.808 45.8896 192.94 43.9876C200.073 42.0856 207.443 41.1346 215.051 41.1346ZM222.421 106.754C206.413 107.547 194.446 110.4 186.521 115.313C178.596 120.068 174.633 127.28 174.633 136.949C174.633 144.715 177.09 150.659 182.004 154.78C186.917 158.743 193.574 160.724 201.975 160.724C215.447 160.724 225.75 156.999 232.883 149.55C240.174 142.1 243.898 131.639 244.057 118.166V105.803L222.421 106.754Z" fill="#0083C9" fill-opacity="0.2"/>
<path d="M125.533 169.755H111.03L12.6009 21.3977H11.8876C11.8876 24.5678 11.9669 27.8171 12.1254 31.1456C12.2839 34.3156 12.3631 37.6442 12.3631 41.1312C12.5216 44.6182 12.6009 48.1845 12.6009 51.8301C12.7594 55.3171 12.8386 58.8834 12.8386 62.5289V169.755H0V0H14.7407L112.695 147.882H113.408C113.408 145.505 113.329 142.731 113.17 139.561C113.012 136.232 112.853 132.745 112.695 129.1C112.695 125.454 112.615 121.809 112.457 118.163C112.457 114.517 112.457 111.03 112.457 107.702V0H125.533V169.755Z" fill="#0083C9" fill-opacity="0.2"/>
</svg>
