<svg width="106" height="120" viewBox="0 0 106 120" fill="none" xmlns="http://www.w3.org/2000/svg">
<path d="M103.259 31.989V118.375H94.1654V31.989H103.259ZM98.7121 0C100.769 0 102.339 0.64952 103.421 1.94857C104.504 3.13935 105.045 4.81729 105.045 6.98236C105.045 9.25569 104.504 11.0419 103.421 12.3409C102.339 13.5317 100.769 14.1271 98.7121 14.1271C96.7635 14.1271 95.248 13.5317 94.1654 12.3409C93.0829 11.0419 92.5416 9.25569 92.5416 6.98236C92.5416 4.81729 93.0829 3.13935 94.1654 1.94857C95.248 0.64952 96.7635 0 98.7121 0Z" fill="#0083C9" fill-opacity="0.4"/>
<path d="M71.6098 88.336C71.6098 95.2642 69.8777 101.11 66.4136 105.873C63.0578 110.528 58.3487 114.046 52.2865 116.428C46.2243 118.809 39.3502 120 31.6642 120C26.901 120 22.625 119.73 18.8361 119.188C15.0473 118.755 11.5831 118.214 8.44379 117.564C5.30443 116.807 2.48984 115.941 0 114.966V105.548C4.11364 107.172 8.8768 108.634 14.2895 109.933C19.7022 111.123 25.6561 111.719 32.1513 111.719C38.1053 111.719 43.3015 110.853 47.7399 109.121C52.2865 107.389 55.8048 104.845 58.2946 101.489C60.8927 98.1329 62.1917 93.9111 62.1917 88.8231C62.1917 84.1682 61.1092 80.3793 58.9441 77.4565C56.8873 74.5336 53.6397 71.9897 49.2013 69.8246C44.8712 67.5513 39.2961 65.278 32.4761 63.0046C27.6047 61.2726 23.2204 59.4864 19.3233 57.6461C15.5344 55.8058 12.2868 53.6407 9.58045 51.1508C6.87411 48.661 4.81729 45.7382 3.40999 42.3823C2.00269 39.0264 1.29904 34.9669 1.29904 30.2038C1.29904 23.8168 2.92285 18.4582 6.17046 14.1281C9.41807 9.79794 13.8023 6.49621 19.3233 4.22288C24.9525 1.94955 31.2853 0.812881 38.3218 0.812881C43.951 0.812881 49.3096 1.35415 54.3975 2.43669C59.4854 3.41097 64.3027 4.92653 68.8493 6.98335L65.7641 15.1024C61.2175 13.1538 56.6167 11.6924 51.9618 10.7181C47.3069 9.74381 42.652 9.25667 37.997 9.25667C32.5844 9.25667 27.8212 10.0686 23.7076 11.6924C19.7022 13.2079 16.5628 15.5354 14.2895 18.6747C12.0162 21.7059 10.8795 25.4947 10.8795 30.0414C10.8795 35.021 11.962 39.0264 14.1271 42.0575C16.2922 45.0886 19.4315 47.6326 23.5452 49.6894C27.6588 51.638 32.6926 53.6407 38.6466 55.6975C45.4665 58.0791 51.3123 60.6231 56.1837 63.3294C61.1633 65.9275 64.9522 69.1751 67.5503 73.0722C70.2566 76.9693 71.6098 82.0573 71.6098 88.336Z" fill="#0083C9" fill-opacity="0.4"/>
</svg>
