<svg width="126" height="174" viewBox="0 0 126 174" fill="none" xmlns="http://www.w3.org/2000/svg">
<path d="M81.3057 12.327C70.8453 12.327 61.4151 14.1444 53.0151 17.7793C44.7736 21.2561 37.8 26.3134 32.0943 32.951C26.3887 39.4305 22.0302 47.2534 19.0189 56.4196C16.0075 65.4278 14.5019 75.4632 14.5019 86.5259C14.5019 101.698 16.8792 114.973 21.634 126.352C26.3887 137.572 33.5208 146.264 43.0302 152.428C52.6981 158.591 64.6642 161.673 78.9283 161.673C87.1698 161.673 94.7774 161.041 101.751 159.777C108.725 158.512 115.143 156.932 121.008 155.035V166.888C115.302 169.101 108.883 170.839 101.751 172.104C94.7774 173.368 86.6151 174 77.2642 174C60.3057 174 46.0415 170.365 34.4717 163.095C23.0604 155.826 14.4226 145.632 8.55849 132.515C2.85283 119.398 0 104.068 0 86.5259C0 74.0409 1.82264 62.5041 5.46792 51.9155C9.11321 41.327 14.4226 32.1608 21.3962 24.4169C28.3698 16.673 36.8491 10.6676 46.834 6.40055C56.9774 2.13352 68.5472 0 81.5434 0C89.6264 0 97.3925 0.79019 104.842 2.37057C112.449 3.95095 119.502 6.24251 126 9.24523L120.532 21.3352C114.509 18.3324 108.17 16.1199 101.513 14.6975C95.0151 13.1172 88.2793 12.327 81.3057 12.327Z" fill="white" fill-opacity="0.2"/>
</svg>
