<svg width="197" height="146" viewBox="0 0 197 146" fill="none" xmlns="http://www.w3.org/2000/svg">
<path d="M161.456 26.323C167.883 26.323 173.188 27.5982 177.37 30.1487C181.553 32.5971 184.92 35.9637 187.47 40.2484H188.082L189.306 27.8533H196.346V111.865C196.346 119.006 195.121 125.076 192.673 130.075C190.225 135.176 186.399 139.104 181.196 141.858C176.095 144.613 169.413 145.99 161.15 145.99C155.131 145.99 149.724 145.48 144.929 144.46C140.236 143.439 136.002 142.113 132.228 140.481V132.064C134.778 133.289 137.583 134.411 140.644 135.431C143.705 136.451 146.969 137.216 150.438 137.726C154.008 138.237 157.732 138.492 161.609 138.492C170.586 138.492 177.166 136.145 181.349 131.452C185.634 126.76 187.776 120.434 187.776 112.477V107.58C187.776 105.438 187.776 103.295 187.776 101.153C187.878 98.9087 187.98 96.8173 188.082 94.879H187.623C185.277 100.082 181.808 104.061 177.217 106.815C172.627 109.467 167.016 110.794 160.384 110.794C149.877 110.794 141.664 107.223 135.747 100.082C129.83 92.9406 126.872 82.6878 126.872 69.3235C126.872 60.448 128.198 52.7966 130.85 46.3695C133.503 39.9424 137.379 34.9945 142.48 31.5259C147.683 28.0573 154.008 26.323 161.456 26.323ZM162.374 33.8213C156.457 33.8213 151.509 35.2496 147.53 38.1061C143.654 40.8605 140.746 44.8902 138.808 50.1952C136.869 55.3981 135.9 61.7742 135.9 69.3235C135.9 80.4434 138.094 88.9109 142.48 94.7259C146.867 100.541 153.141 103.448 161.303 103.448C166.505 103.448 170.79 102.683 174.157 101.153C177.523 99.5208 180.176 97.2764 182.114 94.4199C184.155 91.5634 185.583 88.1968 186.399 84.3201C187.317 80.3414 187.776 76.1077 187.776 71.6189V66.263C187.776 59.3258 186.96 53.4597 185.328 48.6649C183.695 43.8701 180.992 40.1974 177.217 37.647C173.545 35.0965 168.597 33.8213 162.374 33.8213Z" fill="white" fill-opacity="0.2"/>
<path d="M47.4383 109.261L8.11041 9.33463H7.65133C7.85537 11.171 7.95739 13.2623 7.95739 15.6087C8.0594 17.8531 8.11041 20.2505 8.11041 22.801C8.21243 25.2494 8.26344 27.7999 8.26344 30.4523V109.261H0V0H13.3133L50.9579 95.7947H51.57L89.6736 0H102.681V109.261H93.9584V29.5342C93.9584 27.2898 93.9584 24.9944 93.9584 22.6479C94.0604 20.3015 94.1624 18.0061 94.2644 15.7618C94.3664 13.5174 94.4685 11.426 94.5705 9.48766H94.1114L54.6305 109.261H47.4383Z" fill="white" fill-opacity="0.2"/>
</svg>
