<svg width="102" height="68" viewBox="0 0 102 68" fill="none" xmlns="http://www.w3.org/2000/svg">
<path d="M84.9523 16.25C90.5875 16.25 94.7826 17.6275 97.5376 20.3825C100.293 23.1375 101.67 27.5204 101.67 33.5313V67.0608H97.6315L96.6923 58.608H96.4105C95.2209 60.4864 93.8434 62.1456 92.2781 63.5857C90.7753 64.9632 88.9282 66.0589 86.7368 66.8729C84.6079 67.6243 81.9782 68 78.8475 68C75.7168 68 72.9931 67.4678 70.6764 66.4033C68.3597 65.2763 66.5753 63.6796 65.323 61.6134C64.0707 59.5472 63.4446 57.0113 63.4446 54.0059C63.4446 49.0594 65.4795 45.3026 69.5494 42.7355C73.6193 40.1057 79.5362 38.603 87.3003 38.2273L96.4105 37.8516V34.2827C96.4105 29.3362 95.4087 25.8612 93.4051 23.8575C91.4641 21.7913 88.5526 20.7582 84.6705 20.7582C82.1034 20.7582 79.6301 21.1025 77.2508 21.7913C74.9341 22.4174 72.5861 23.3253 70.2068 24.515L68.5163 20.2886C70.833 19.0989 73.4001 18.1284 76.2177 17.377C79.0353 16.6257 81.9468 16.25 84.9523 16.25ZM87.8638 42.1719C81.5399 42.485 76.8125 43.612 73.6819 45.5531C70.5512 47.4315 68.9859 50.2804 68.9859 54.0998C68.9859 57.1678 69.9564 59.5159 71.8974 61.1438C73.8384 62.7091 76.4682 63.4918 79.7867 63.4918C85.1088 63.4918 89.1787 62.0204 91.9963 59.0775C94.8765 56.1347 96.3479 52.0022 96.4105 46.6801V41.7963L87.8638 42.1719Z" fill="white" fill-opacity="0.6"/>
<path d="M49.5898 67.0589H43.8607L4.97777 8.45281H4.696C4.696 9.70508 4.72731 10.9887 4.78992 12.3035C4.85254 13.5558 4.88385 14.8707 4.88385 16.2482C4.94646 17.6257 4.97777 19.0345 4.97777 20.4746C5.04038 21.8521 5.07169 23.2609 5.07169 24.701V67.0589H0V0H5.82305L44.5181 58.4183H44.7999C44.7999 57.4791 44.7686 56.3834 44.706 55.1311C44.6434 53.8162 44.5807 52.4387 44.5181 50.9986C44.5181 49.5585 44.4868 48.1184 44.4242 46.6783C44.4242 45.2382 44.4242 43.8607 44.4242 42.5458V0H49.5898V67.0589Z" fill="white" fill-opacity="0.6"/>
</svg>
